HIERARCHY
ROOT Hips
{
	OFFSET 0.000000 71.427986 0.000000
	CHANNELS 6 Xposition Yposition Zposition Xrotation Yrotation Zrotation
	JOINT Pelvis
	{
		OFFSET 0.000000 0.000000 0.000000
		CHANNELS 3 Xrotation Yrotation Zrotation
		JOINT LeftUpLeg
		{
			OFFSET 6.797100 -2.508499 -1.318700
			CHANNELS 3 Xrotation Yrotation Zrotation
			JOINT LeftLeg
			{
				OFFSET 0.069008 -29.241863 0.690200
				CHANNELS 3 Xrotation Yrotation Zrotation
				JOINT LeftFoot
				{
					OFFSET -0.069008 -29.568123 -0.266800
					CHANNELS 3 Xrotation Yrotation Zrotation
					JOINT LeftToeBase
					{
						OFFSET 3.145500 -8.631000 16.059900
						CHANNELS 3 Xrotation Yrotation Zrotation
						End Site
						{
							OFFSET 0.000000 18.501587 0.000000
						}
					}
				}
			}
			JOINT Left_ShortSleeve
			{
				OFFSET 0.265923 -10.480953 1.153800
				CHANNELS 3 Xrotation Yrotation Zrotation
				End Site
				{
					OFFSET 1.725763 19.823879 0.000000
				}
			}
		}
		JOINT RightUpLeg
		{
			OFFSET -6.797100 -2.508499 -1.318700
			CHANNELS 3 Xrotation Yrotation Zrotation
			JOINT RightLeg
			{
				OFFSET -0.082453 -29.241932 0.688000
				CHANNELS 3 Xrotation Yrotation Zrotation
				JOINT RightFoot
				{
					OFFSET 0.082453 -29.568058 -0.264600
					CHANNELS 3 Xrotation Yrotation Zrotation
					JOINT RightToeBase
					{
						OFFSET -3.115300 -8.682800 16.113400
						CHANNELS 3 Xrotation Yrotation Zrotation
						End Site
						{
							OFFSET 0.000000 18.567114 0.000000
						}
					}
				}
			}
			JOINT Right_ShortSleeve
			{
				OFFSET -0.265923 -10.480953 1.153800
				CHANNELS 3 Xrotation Yrotation Zrotation
				End Site
				{
					OFFSET -1.725766 19.823910 0.000000
				}
			}
		}
	}
	JOINT Spine
	{
		OFFSET 0.000000 13.368103 0.470500
		CHANNELS 3 Xrotation Yrotation Zrotation
		JOINT Spine1
		{
			OFFSET 0.147000 13.837402 0.538800
			CHANNELS 3 Xrotation Yrotation Zrotation
			JOINT Spine2
			{
				OFFSET 0.168000 16.242897 -1.435500
				CHANNELS 3 Xrotation Yrotation Zrotation
				JOINT Neck
				{
					OFFSET 0.217200 18.631500 -1.679100
					CHANNELS 3 Xrotation Yrotation Zrotation
					JOINT Head
					{
						OFFSET 0.000000 6.599396 1.385900
						CHANNELS 3 Xrotation Yrotation Zrotation
						JOINT Hat
						{
							OFFSET -0.532200 27.220596 -10.096100
							CHANNELS 3 Xrotation Yrotation Zrotation
							End Site
							{
								OFFSET 0.000000 22.029861 0.000000
							}
						}
						JOINT HairD
						{
							OFFSET -10.777400 17.437393 -1.325900
							CHANNELS 3 Xrotation Yrotation Zrotation
							JOINT HairD1
							{
								OFFSET -3.290299 -11.051193 1.062200
								CHANNELS 3 Xrotation Yrotation Zrotation
								End Site
								{
									OFFSET 0.000000 11.579437 0.000000
								}
							}
						}
						JOINT HairB
						{
							OFFSET -10.777400 17.437393 1.467900
							CHANNELS 3 Xrotation Yrotation Zrotation
							JOINT HairB1
							{
								OFFSET -1.561200 -12.956299 3.590200
								CHANNELS 3 Xrotation Yrotation Zrotation
								End Site
								{
									OFFSET 0.000000 13.534866 0.000000
								}
							}
						}
						JOINT HairA
						{
							OFFSET 9.713100 17.437393 1.467900
							CHANNELS 3 Xrotation Yrotation Zrotation
							JOINT HairA1
							{
								OFFSET 1.561200 -12.956299 3.590200
								CHANNELS 3 Xrotation Yrotation Zrotation
								End Site
								{
									OFFSET 0.000000 13.534866 0.000000
								}
							}
						}
						JOINT HairC
						{
							OFFSET 9.713100 17.437393 -1.325900
							CHANNELS 3 Xrotation Yrotation Zrotation
							JOINT HairC1
							{
								OFFSET 3.290300 -11.051193 1.062200
								CHANNELS 3 Xrotation Yrotation Zrotation
								End Site
								{
									OFFSET 0.000000 11.579437 0.000000
								}
							}
						}
					}
				}
				JOINT LeftShoulder
				{
					OFFSET 5.101800 15.108002 -2.763700
					CHANNELS 3 Xrotation Yrotation Zrotation
					JOINT LeftArm
					{
						OFFSET 9.825497 2.506317 -1.597400
						CHANNELS 3 Xrotation Yrotation Zrotation
						JOINT LeftForeArm
						{
							OFFSET 21.966244 0.000000 0.000000
							CHANNELS 3 Xrotation Yrotation Zrotation
							JOINT LeftHand
							{
								OFFSET 33.879036 0.000000 0.000000
								CHANNELS 3 Xrotation Yrotation Zrotation
								JOINT LeftHandThumb1
								{
									OFFSET 6.715286 -2.359680 3.363841
									CHANNELS 3 Xrotation Yrotation Zrotation
									JOINT LeftHandThumb2
									{
										OFFSET 2.507072 -1.447464 1.447461
										CHANNELS 3 Xrotation Yrotation Zrotation
										JOINT LeftHandThumb3
										{
											OFFSET 2.898338 -1.673355 1.673357
											CHANNELS 3 Xrotation Yrotation Zrotation
											End Site
											{
												OFFSET -0.295959 3.727692 -0.131651
											}
										}
									}
								}
								JOINT LeftHandIndex1
								{
									OFFSET 14.190811 -0.254547 3.840278
									CHANNELS 3 Xrotation Yrotation Zrotation
									JOINT LeftHandIndex2
									{
										OFFSET 3.551727 0.000000 -0.000000
										CHANNELS 3 Xrotation Yrotation Zrotation
										JOINT LeftHandIndex3
										{
											OFFSET 2.894196 0.000000 0.000000
											CHANNELS 3 Xrotation Yrotation Zrotation
											End Site
											{
												OFFSET -1.000603 2.690872 0.366626
											}
										}
									}
								}
								JOINT LeftHandMiddle1
								{
									OFFSET 13.776489 0.000000 0.000000
									CHANNELS 3 Xrotation Yrotation Zrotation
									JOINT LeftHandMiddle2
									{
										OFFSET 3.438232 0.000000 0.000000
										CHANNELS 3 Xrotation Yrotation Zrotation
										JOINT LeftHandMiddle3
										{
											OFFSET 3.691551 0.000000 0.000000
											CHANNELS 3 Xrotation Yrotation Zrotation
											End Site
											{
												OFFSET -1.082298 3.499527 0.457670
											}
										}
									}
								}
								JOINT LeftHandRing1
								{
									OFFSET 13.966164 -0.268127 -3.067488
									CHANNELS 3 Xrotation Yrotation Zrotation
									JOINT LeftHandRing2
									{
										OFFSET 3.162567 0.000000 0.000000
										CHANNELS 3 Xrotation Yrotation Zrotation
										JOINT LeftHandRing3
										{
											OFFSET 3.324348 0.000000 0.000000
											CHANNELS 3 Xrotation Yrotation Zrotation
											End Site
											{
												OFFSET -0.861900 3.184998 0.405154
											}
										}
									}
								}
								JOINT LeftHandPinky1
								{
									OFFSET 13.131393 -0.168503 -5.746925
									CHANNELS 3 Xrotation Yrotation Zrotation
									JOINT LeftHandPinky2
									{
										OFFSET 2.849182 0.000000 0.000000
										CHANNELS 3 Xrotation Yrotation Zrotation
										JOINT LeftHandPinky3
										{
											OFFSET 2.805038 0.000000 0.000000
											CHANNELS 3 Xrotation Yrotation Zrotation
											End Site
											{
												OFFSET -0.882500 2.642609 0.325652
											}
										}
									}
								}
							}
							JOINT Left_Sleeve
							{
								OFFSET 6.592125 -0.646545 0.805568
								CHANNELS 3 Xrotation Yrotation Zrotation
								End Site
								{
									OFFSET -0.000179 20.275787 -0.000000
								}
							}
						}
					}
				}
				JOINT RightShoulder
				{
					OFFSET -5.731700 15.108002 -2.763700
					CHANNELS 3 Xrotation Yrotation Zrotation
					JOINT RightArm
					{
						OFFSET -9.825497 2.506317 -1.597400
						CHANNELS 3 Xrotation Yrotation Zrotation
						JOINT RightForeArm
						{
							OFFSET -21.966242 0.000000 0.000000
							CHANNELS 3 Xrotation Yrotation Zrotation
							JOINT RightHand
							{
								OFFSET -33.879032 0.000000 0.000000
								CHANNELS 3 Xrotation Yrotation Zrotation
								JOINT RightHandThumb1
								{
									OFFSET -6.715286 -2.359680 3.363841
									CHANNELS 3 Xrotation Yrotation Zrotation
									JOINT RightHandThumb2
									{
										OFFSET -2.507072 -1.447464 1.447461
										CHANNELS 3 Xrotation Yrotation Zrotation
										JOINT RightHandThumb3
										{
											OFFSET -2.898338 -1.673355 1.673357
											CHANNELS 3 Xrotation Yrotation Zrotation
											End Site
											{
												OFFSET 0.295959 3.727692 -0.131651
											}
										}
									}
								}
								JOINT RightHandIndex1
								{
									OFFSET -14.190811 -0.254547 3.840278
									CHANNELS 3 Xrotation Yrotation Zrotation
									JOINT RightHandIndex2
									{
										OFFSET -3.551727 0.000000 -0.000000
										CHANNELS 3 Xrotation Yrotation Zrotation
										JOINT RightHandIndex3
										{
											OFFSET -2.894196 0.000000 0.000000
											CHANNELS 3 Xrotation Yrotation Zrotation
											End Site
											{
												OFFSET 1.000603 2.690872 0.366626
											}
										}
									}
								}
								JOINT RightHandMiddle1
								{
									OFFSET -13.776489 0.000000 0.000000
									CHANNELS 3 Xrotation Yrotation Zrotation
									JOINT RightHandMiddle2
									{
										OFFSET -3.438232 0.000000 0.000000
										CHANNELS 3 Xrotation Yrotation Zrotation
										JOINT RightHandMiddle3
										{
											OFFSET -3.691551 0.000000 0.000000
											CHANNELS 3 Xrotation Yrotation Zrotation
											End Site
											{
												OFFSET 1.082298 3.499527 0.457670
											}
										}
									}
								}
								JOINT RightHandRing1
								{
									OFFSET -13.966164 -0.268127 -3.067488
									CHANNELS 3 Xrotation Yrotation Zrotation
									JOINT RightHandRing2
									{
										OFFSET -3.162567 0.000000 0.000000
										CHANNELS 3 Xrotation Yrotation Zrotation
										JOINT RightHandRing3
										{
											OFFSET -3.324348 0.000000 0.000000
											CHANNELS 3 Xrotation Yrotation Zrotation
											End Site
											{
												OFFSET 0.861900 3.184998 0.405154
											}
										}
									}
								}
								JOINT RightHandPinky1
								{
									OFFSET -13.131393 -0.168503 -5.746925
									CHANNELS 3 Xrotation Yrotation Zrotation
									JOINT RightHandPinky2
									{
										OFFSET -2.849182 0.000000 0.000000
										CHANNELS 3 Xrotation Yrotation Zrotation
										JOINT RightHandPinky3
										{
											OFFSET -2.805038 0.000000 0.000000
											CHANNELS 3 Xrotation Yrotation Zrotation
											End Site
											{
												OFFSET 0.882500 2.642609 0.325652
											}
										}
									}
								}
							}
							JOINT Right_Sleeve
							{
								OFFSET -6.592125 -0.646545 0.805568
								CHANNELS 3 Xrotation Yrotation Zrotation
								End Site
								{
									OFFSET 0.000179 20.275787 -0.000000
								}
							}
						}
					}
				}
				JOINT Bind_Right_JacketString
				{
					OFFSET -3.534800 11.969597 7.200700
					CHANNELS 3 Xrotation Yrotation Zrotation
					JOINT Bind_Right_JacketString1
					{
						OFFSET -0.319900 -6.102600 2.794100
						CHANNELS 3 Xrotation Yrotation Zrotation
						End Site
						{
							OFFSET 0.000000 6.719452 0.000000
						}
					}
				}
				JOINT Bind_Left_JacketString
				{
					OFFSET 2.904800 11.969597 7.200700
					CHANNELS 3 Xrotation Yrotation Zrotation
					JOINT Bind_Left_JacketString1
					{
						OFFSET 0.364800 -5.904503 3.186800
						CHANNELS 3 Xrotation Yrotation Zrotation
						End Site
						{
							OFFSET 0.000000 6.719513 0.000000
						}
					}
				}
				JOINT HairE
				{
					OFFSET 5.915200 17.612701 -11.592200
					CHANNELS 3 Xrotation Yrotation Zrotation
					JOINT HairE1
					{
						OFFSET 0.289200 -7.171898 -1.284500
						CHANNELS 3 Xrotation Yrotation Zrotation
						End Site
						{
							OFFSET 0.000000 7.291756 0.000000
						}
					}
				}
				JOINT HairF
				{
					OFFSET -0.864800 17.612701 -11.592200
					CHANNELS 3 Xrotation Yrotation Zrotation
					JOINT HairF1
					{
						OFFSET 0.000000 -14.087097 -2.127501
						CHANNELS 3 Xrotation Yrotation Zrotation
						End Site
						{
							OFFSET 0.000000 14.246841 0.000000
						}
					}
				}
				JOINT HairG
				{
					OFFSET -8.087700 17.612701 -11.592200
					CHANNELS 3 Xrotation Yrotation Zrotation
					JOINT HairG1
					{
						OFFSET -0.293600 -6.081398 -0.910100
						CHANNELS 3 Xrotation Yrotation Zrotation
						End Site
						{
							OFFSET 0.000000 6.156120 0.000000
						}
					}
				}
			}
		}
	}
	JOINT Pouch
	{
		OFFSET 0.000000 4.394501 10.847300
		CHANNELS 3 Xrotation Yrotation Zrotation
		End Site
		{
			OFFSET 0.000000 21.880577 0.000000
		}
	}
	JOINT Bag
	{
		OFFSET -13.229000 4.813004 -0.593300
		CHANNELS 3 Xrotation Yrotation Zrotation
		End Site
		{
			OFFSET 0.000000 21.880577 0.000000
		}
	}
	JOINT OccupyGuyFacialAnim_Joint
	{
		OFFSET 1.000000 -70.206398 -1.655000
		CHANNELS 3 Xrotation Yrotation Zrotation
		End Site
		{
			OFFSET 0.000000 21.880577 0.000000
		}
	}
}
MOTION
Frames: 4
Frame Time: 0.033333
1.917102 64.582092 -0.466651 -10.006219 -50.755276 -1.522581 -0.000000 -0.000000 0.000000 -22.031192 15.861740 18.990209 40.795084 -3.814606 -0.821050 -9.726239 1.743446 -13.641857 -0.000000 0.000000 0.000000 -0.000000 0.000001 -0.000000 -22.754900 -1.900724 -20.342132 51.375440 3.343844 -8.062312 -21.242165 -3.711964 15.462163 0.000000 0.000003 -0.000000 -0.000002 -0.000000 -0.000001 6.703586 0.907861 -2.692767 13.440120 1.505927 -5.282125 13.440110 1.505928 -5.282124 3.996199 2.607469 -0.466376 -8.638528 40.681331 -5.376916 -0.000001 0.000000 0.000000 -0.000001 0.000000 0.000000 -0.000001 0.000000 0.000000 -0.000001 0.000000 0.000000 -0.000003 0.000000 0.000000 -0.000001 0.000000 0.000000 -0.000003 0.000000 0.000000 -0.000001 0.000000 0.000000 -0.000001 0.000000 0.000000 -0.177261 -6.033971 5.204544 -21.071660 17.785768 -57.231497 -0.000018 -126.318775 -0.000003 -6.641503 -5.398321 -3.626834 -2.154177 6.800158 9.892499 25.836160 36.182446 -25.085243 0.000000 -0.000000 0.000001 20.887361 7.646012 -92.409632 7.469736 5.623431 -106.086881 -0.000002 0.000001 -0.000000 12.668647 7.118961 -99.980473 7.120941 5.712050 -102.556008 0.000004 0.000003 -0.000001 5.682258 8.252667 -95.779476 8.216159 5.353294 -113.878781 0.000001 -0.000001 -0.000002 -3.644682 8.906877 -93.940045 7.168188 5.701388 -103.031088 0.000003 -0.000000 0.000001 0.000001 -0.000000 -0.000001 10.920039 26.931043 3.130404 -46.478198 38.185877 48.496105 -0.000034 110.564548 0.000018 -26.511553 16.043032 15.588614 -8.123109 -3.695117 -18.700486 26.149355 -37.962106 25.226189 -0.000002 -0.000002 0.000000 19.570640 -6.576511 91.648551 5.944028 -4.476185 106.057647 -0.000001 -0.000000 0.000002 11.200857 -5.955908 99.192706 5.666701 -4.546664 102.532730 0.000000 0.000003 -0.000000 4.287379 -6.986156 95.001593 6.537639 -4.261400 113.838169 0.000003 -0.000001 0.000002 -5.006087 -7.516116 93.188164 5.704279 -4.538198 103.006984 -0.000000 -0.000002 -0.000001 -0.000002 0.000002 0.000001 0.000002 -0.000001 0.000001 0.000001 -0.000000 0.000001 0.000002 -0.000001 0.000000 0.000002 -0.000001 0.000000 0.000002 -0.000001 0.000001 0.000001 -0.000000 0.000001 0.000002 -0.000001 0.000000 0.000002 -0.000001 0.000000 0.000002 -0.000001 0.000001 0.000001 -0.000000 0.000001 -0.000000 -0.000000 0.000000 -0.000000 -0.000000 0.000000 -0.000000 -0.000000 0.000000 
1.908182 64.395103 -0.475218 -10.499540 -50.214844 -1.017962 -0.000000 -0.000001 0.000000 -21.632882 15.215908 17.598233 41.379403 -3.272106 -0.434814 -10.037614 1.747557 -13.774458 0.000000 -0.000002 0.000000 0.000004 0.000000 -0.000002 -22.752463 -1.421273 -21.256450 52.510914 2.872942 -8.073225 -21.843560 -3.850726 15.747464 0.000000 0.000001 -0.000000 -0.000001 -0.000001 -0.000000 6.515957 1.148480 -2.779691 13.352088 1.616710 -5.328371 13.352062 1.617361 -5.328285 4.101199 2.458936 -0.993097 -4.771016 39.236934 -6.544912 0.000002 -0.000000 -0.000000 0.000002 -0.000000 -0.000000 0.000002 -0.000000 -0.000001 0.000002 -0.000000 -0.000000 0.000002 -0.000000 -0.000000 0.000002 -0.000000 -0.000000 0.000002 -0.000000 -0.000000 0.000002 -0.000000 -0.000000 0.000002 -0.000000 -0.000000 -0.169290 -5.938034 5.021064 -21.580331 15.239112 -57.800947 0.000034 -124.117296 0.000026 -9.910830 -5.546330 -4.567745 -3.195732 5.032524 10.607148 25.598540 37.492428 -23.612867 -0.000001 0.000001 -0.000000 20.813229 7.915490 -91.387651 7.490674 5.617364 -106.300679 -0.000002 0.000001 -0.000003 12.711144 7.179408 -99.330410 7.157169 5.703914 -102.920166 0.000004 0.000001 0.000001 5.598228 8.256689 -95.495641 8.194277 5.362881 -113.644465 -0.000001 0.000001 0.000000 -3.594265 8.850415 -93.638212 7.144816 5.706718 -102.796096 -0.000002 -0.000000 0.000005 -0.000002 0.000000 0.000002 11.034650 27.576032 2.707806 -45.346941 37.493039 47.097365 0.000144 110.389128 -0.000141 -26.707790 15.851795 14.869260 -8.580290 -3.742942 -18.866960 26.385314 -38.142010 25.245892 -0.000002 -0.000001 -0.000002 19.411048 -6.482577 92.023467 5.924456 -4.481769 105.806829 -0.000001 -0.000002 -0.000002 11.122870 -5.847958 100.382716 5.661605 -4.547794 102.468431 0.000001 0.000002 -0.000002 4.339383 -6.990500 95.633720 6.528306 -4.265521 113.712391 0.000005 -0.000000 0.000001 -4.866699 -7.708065 94.342063 5.692283 -4.540926 102.855744 0.000003 -0.000000 -0.000001 -0.000002 0.000001 -0.000001 0.000001 -0.000002 0.000000 0.000001 0.000001 -0.000001 0.000001 -0.000002 0.000002 0.000001 -0.000002 0.000002 0.000001 -0.000002 0.000000 0.000001 0.000001 -0.000001 0.000001 -0.000002 0.000002 0.000001 -0.000002 0.000002 0.000001 -0.000002 0.000000 0.000001 0.000001 -0.000001 -0.000000 -0.000001 0.000000 -0.000000 -0.000001 0.000000 -0.000000 -0.000001 0.000000 
1.844273 64.143417 -0.198251 -11.542362 -48.964171 -0.100923 0.000000 -0.000000 -0.000000 -20.632408 14.594420 15.151598 42.147349 -3.160441 -0.005734 -10.559285 1.896136 -13.815019 0.000000 -0.000001 0.000000 0.000001 0.000000 -0.000002 -21.981331 -0.640681 -23.196805 54.039354 1.896444 -8.082823 -22.911089 -4.148201 16.502504 -0.000000 -0.000005 0.000000 -0.000000 0.000003 -0.000001 6.214147 1.718161 -2.568076 13.234039 1.897111 -5.281703 13.234724 1.896767 -5.279531 4.388301 2.052140 -2.091889 2.598142 36.001166 -9.313261 0.000001 0.000000 0.000001 0.000001 0.000000 0.000001 0.000001 0.000000 0.000000 0.000001 0.000000 0.000001 0.000001 0.000000 0.000000 0.000001 0.000000 0.000001 0.000001 0.000000 0.000000 0.000001 0.000000 0.000001 0.000001 0.000000 0.000001 -0.114692 -5.142800 4.805770 -22.201007 10.665263 -60.656274 -0.000008 -118.648077 -0.000011 -15.664549 -5.660891 -4.586215 -3.665745 3.588512 11.299395 24.199611 37.903097 -22.149250 -0.000001 0.000001 -0.000004 20.180345 8.554835 -88.891504 7.458967 5.626512 -105.976949 -0.000001 0.000002 -0.000002 12.571380 7.342292 -97.966694 7.127136 5.710686 -102.618435 0.000002 0.000001 0.000001 5.439315 8.254732 -94.500708 8.163467 5.376223 -113.315017 0.000003 0.000001 -0.000003 -3.589707 8.699849 -92.768217 7.114109 5.713568 -102.487453 0.000003 -0.000000 0.000001 -0.000002 -0.000003 0.000002 11.105246 28.454088 2.241840 -42.370997 36.553420 43.918523 0.000097 110.764037 -0.000096 -25.620834 15.243695 14.293512 -9.140694 -3.783308 -19.057396 26.678586 -38.359924 25.277231 -0.000002 -0.000001 0.000000 19.329772 -6.235351 92.994836 5.913231 -4.484917 105.663272 -0.000002 0.000002 0.000002 11.161409 -5.735645 101.426800 5.656408 -4.548933 102.402793 0.000000 0.000002 0.000003 4.383720 -6.993735 96.172267 6.517347 -4.270303 113.565050 -0.000005 -0.000001 -0.000002 -4.739977 -7.812842 95.007733 5.680182 -4.543653 102.702857 -0.000000 -0.000001 0.000000 0.000002 -0.000003 0.000001 -0.000001 -0.000000 -0.000000 -0.000000 -0.000000 -0.000000 -0.000001 -0.000000 -0.000000 -0.000001 -0.000000 -0.000000 -0.000001 -0.000000 -0.000000 -0.000000 -0.000000 -0.000000 -0.000001 -0.000000 -0.000000 -0.000001 -0.000000 -0.000000 -0.000001 -0.000000 -0.000000 -0.000000 -0.000000 -0.000000 0.000000 -0.000000 -0.000000 0.000000 -0.000000 -0.000000 0.000000 -0.000000 -0.000000 
1.651528 63.992722 0.603050 -14.872718 -45.617816 0.590819 0.000001 0.000002 -0.000000 -17.572576 15.544153 11.647842 42.289625 -5.942189 0.257601 -11.123168 1.655471 -12.476972 -0.000000 0.000002 -0.000000 -0.000001 -0.000000 -0.000000 -17.911172 -0.642768 -27.064840 54.870526 -0.284033 -8.104071 -24.325256 -4.845070 18.637443 -0.000000 -0.000002 -0.000000 -0.000000 0.000001 -0.000001 4.454424 2.978376 -0.908834 12.392128 2.626479 -4.655857 12.393307 2.624866 -4.651681 4.826508 1.266798 -4.369800 11.527520 30.506692 -14.554443 -0.000000 -0.000000 -0.000000 -0.000000 -0.000000 -0.000000 -0.000000 -0.000000 -0.000000 -0.000000 -0.000000 -0.000000 -0.000000 0.000000 0.000000 -0.000000 -0.000000 -0.000000 -0.000000 0.000000 0.000000 -0.000000 -0.000000 -0.000000 -0.000000 -0.000000 -0.000000 -0.166352 -4.788697 6.102668 -19.414102 -2.495410 -66.535195 0.000199 -102.364052 0.000186 -19.656509 -2.861309 -6.448416 -2.245222 3.534808 11.527980 20.010863 35.496462 -21.397492 -0.000001 -0.000001 -0.000003 18.581181 9.618844 -84.065026 7.342896 5.658275 -104.796713 0.000001 0.000003 -0.000001 12.015385 7.656675 -95.469700 6.984074 5.740670 -101.184458 0.000004 0.000000 -0.000001 5.177830 8.231065 -92.151526 8.137308 5.387345 -113.036386 -0.000001 0.000001 -0.000002 -3.754027 8.373690 -90.826981 7.063306 5.724540 -101.977504 -0.000001 -0.000001 0.000003 -0.000001 0.000003 0.000002 10.501021 28.202164 2.821113 -38.558132 36.231883 38.617275 -0.000047 107.635483 0.000034 -23.864191 13.999641 16.368080 -9.688879 -3.776140 -19.204279 26.977024 -38.565335 25.329116 0.000000 -0.000001 -0.000000 19.436010 -6.082862 93.567328 5.937829 -4.477975 105.978144 -0.000001 -0.000000 -0.000003 11.370057 -5.781921 100.587165 5.658224 -4.548525 102.425906 0.000003 0.000003 -0.000004 4.340522 -6.990584 95.647462 6.512208 -4.272533 113.496215 0.000000 0.000000 -0.000003 -4.861620 -7.565176 93.524687 5.685449 -4.542487 102.769185 0.000004 0.000003 -0.000004 -0.000002 -0.000002 -0.000003 0.000000 0.000001 -0.000001 0.000000 0.000001 -0.000001 0.000000 0.000001 0.000000 0.000000 0.000001 0.000000 0.000000 0.000001 -0.000001 0.000000 0.000001 -0.000000 0.000000 0.000001 0.000000 0.000000 0.000001 0.000000 0.000000 0.000001 -0.000001 0.000000 0.000001 -0.000000 0.000001 0.000002 -0.000000 0.000001 0.000002 -0.000000 0.000001 0.000002 -0.000000 
